#!OML:ASF F:\VICON\USERDATA\INSTALL\rory3\rory3.ASF
:FULLY-SPECIFIED
:DEGREES
597
root 2.57721 17.8784 -2.86974 1.49685 18.6754 1.90672
lowerback 2.37167 -0.0592547 -3.57258
upperback -0.164487 -0.179607 0.0620937
thorax -1.48787 -0.0610741 2.07337
lowerneck -22.886 -2.22182 -10.4985
upperneck 18.8525 0.198771 1.39222
head 9.77303 -0.514864 2.22393
rclavicle -1.30375e-014 1.3418e-015
rhumerus 28.3329 -5.15348 -27.8639
rradius 40.2035
rwrist 11.3589
rhand -22.2473 1.16198
rfingers 7.12502
rthumb 4.16995 -28.777
lclavicle -1.30375e-014 1.3418e-015
lhumerus 16.1832 2.49442 21.7516
lradius 41.6753
lwrist 20.4364
lhand -12.6155 31.6512
lfingers 7.12502
lthumb 13.4638 61.196
rfemur -9.39563 -0.639631 8.74338
rtibia 38.2331
rfoot -20.3601 -17.4498
rtoes 9.54206
lfemur -7.18428 2.69193 -22.0371
ltibia 22.1978
lfoot -13.3918 -8.07122
ltoes -13.3528
598
root 2.60515 17.8807 -2.82433 1.27603 18.4389 1.93174
lowerback 2.26124 -0.0702159 -3.55737
upperback -0.271546 -0.191743 0.0417687
thorax -1.53526 -0.0650895 2.0442
lowerneck -23.1179 -2.15769 -10.4813
upperneck 19.1543 0.298562 1.47341
head 9.91482 -0.468665 2.26878
rclavicle 6.36189e-015 2.48481e-015
rhumerus 29.8287 -7.44243 -26.6445
rradius 40.2595
rwrist 10.8632
rhand -22.0738 1.2534
rfingers 7.12502
rthumb 4.3375 -28.6822
lclavicle 6.36189e-015 2.48481e-015
lhumerus 17.385 5.18132 20.3936
lradius 41.1131
lwrist 20.3992
lhand -13.3249 33.1145
lfingers 7.12502
lthumb 12.78 62.7033
rfemur -9.22214 -0.688379 8.67985
rtibia 38.3735
rfoot -19.8542 -17.9864
rtoes 6.45173
lfemur -6.69203 2.66737 -22.1168
ltibia 22.1962
lfoot -13.5857 -7.71724
ltoes -13.5312
599
root 2.62916 17.8763 -2.78167 1.07403 18.2543 1.84452
lowerback 2.15247 -0.103163 -3.49713
upperback -0.461178 -0.232902 0.0739228
thorax -1.66661 -0.0812721 2.04489
lowerneck -23.0618 -2.06876 -10.4251
upperneck 19.4125 0.392555 1.50851
head 9.99094 -0.42591 2.28964
rclavicle 3.31819e-014 -3.8763e-015
rhumerus 31.1721 -9.61057 -25.4969
rradius 40.3603
rwrist 10.2085
rhand -22.3802 1.05095
rfingers 7.12502
rthumb 4.04162 -28.8905
lclavicle 3.31819e-014 -3.8763e-015
lhumerus 18.4816 7.76955 19.1706
lradius 40.592
lwrist 20.0558
lhand -12.7778 32.8471
lfingers 7.12502
lthumb 13.3073 62.4022
rfemur -9.05271 -0.676653 8.72432
rtibia 38.5892
rfoot -19.9286 -17.9404
rtoes 5.12312
lfemur -6.2562 2.615 -22.0686
ltibia 22.0975
lfoot -13.6262 -7.42888
ltoes -13.5243
600
root 2.64949 17.8688 -2.74037 0.895625 18.0715 1.79197
lowerback 2.06511 -0.11545 -3.52221
upperback -0.70689 -0.250634 0.109314
thorax -1.86889 -0.0828461 2.0962
lowerneck -22.7779 -1.97163 -10.3293
upperneck 19.6196 0.473343 1.46824
head 10.0098 -0.393264 2.2742
rclavicle -5.96414e-014 6.4605e-016
rhumerus 32.4046 -11.8326 -24.5919
rradius 40.4817
rwrist 9.61835
rhand -22.7208 0.820605
rfingers 7.12502
rthumb 3.71275 -29.1268
lclavicle -5.96414e-014 6.4605e-016
lhumerus 19.5466 10.1727 18.0149
lradius 40.0977
lwrist 19.627
lhand -11.658 31.2386
lfingers 7.12502
lthumb 14.3865 60.7201
rfemur -8.87677 -0.608031 8.72237
rtibia 38.8634
rfoot -20.4466 -17.3423
rtoes 7.11654
lfemur -5.80686 2.66597 -22.0406
ltibia 21.9346
lfoot -13.6991 -7.25713
ltoes -13.5892
601
root 2.67109 17.8702 -2.6943 0.788112 17.8424 1.84156
lowerback 1.93344 -0.105396 -3.64829
upperback -0.934487 -0.239486 0.120981
thorax -2.02944 -0.0695745 2.17854
lowerneck -22.6292 -1.92468 -10.3198
upperneck 19.8382 0.515548 1.495
head 10.059 -0.377328 2.29116
rclavicle 5.26935e-015 9.44227e-015
rhumerus 33.5755 -14.0502 -23.8738
rradius 40.6324
rwrist 9.0468
rhand -23.202 0.485479
rfingers 7.12502
rthumb 3.24805 -29.4695
lclavicle 5.26935e-015 9.44227e-015
lhumerus 20.7749 12.7667 17.1619
lradius 39.4497
lwrist 18.8956
lhand -10.7799 30.2761
lfingers 7.12502
lthumb 15.2325 59.6953
rfemur -8.83331 -0.587747 8.5881
rtibia 39.1713
rfoot -20.3319 -17.1572
rtoes 7.48339
lfemur -5.37879 2.68141 -22.1256
ltibia 21.7886
lfoot -13.7882 -7.01751
ltoes -13.3822
602
root 2.68997 17.874 -2.64768 0.645053 17.5892 1.83873
lowerback 1.79981 -0.122562 -3.7304
upperback -1.06184 -0.261025 0.143421
thorax -2.08373 -0.0761968 2.24821
lowerneck -22.6773 -1.87591 -10.3407
upperneck 19.993 0.569226 1.61805
head 10.1185 -0.344671 2.34897
rclavicle 2.33013e-014 9.44227e-015
rhumerus 34.9072 -16.3108 -23.275
rradius 40.7304
rwrist 8.255
rhand -23.8105 0.433567
rfingers 7.12502
rthumb 2.66035 -29.5296
lclavicle 2.33013e-014 9.44227e-015
lhumerus 22.1036 15.4412 16.46
lradius 38.7483
lwrist 18.25
lhand -9.6966 29.6759
lfingers 7.12502
lthumb 16.2758 59.0128
rfemur -8.7794 -0.468682 8.52627
rtibia 39.4901
rfoot -19.9407 -17.1803
rtoes 6.06281
lfemur -4.93203 2.7822 -22.1293
ltibia 21.6304
lfoot -13.8818 -6.88503
ltoes -13.1834
603
root 2.70593 17.8737 -2.60296 0.562072 17.3272 1.81267
lowerback 1.609 -0.165301 -3.8078
upperback -1.13145 -0.312406 0.184383
thorax -2.04422 -0.100172 2.33483
lowerneck -23.0103 -1.8416 -10.4572
upperneck 20.2849 0.630538 1.91592
head 10.2767 -0.299366 2.48967
rclavicle -1.41075e-014 -8.54774e-015
rhumerus 36.2367 -18.4106 -22.4442
rradius 40.8135
rwrist 7.12905
rhand -24.7057 0.391206
rfingers 7.12502
rthumb 1.79577 -29.581
lclavicle -1.41075e-014 -8.54774e-015
lhumerus 23.4018 18.1977 15.854
lradius 38.154
lwrist 17.673
lhand -9.29251 29.2192
lfingers 7.12502
lthumb 16.6649 58.5239
rfemur -8.75315 -0.296569 8.47837
rtibia 39.8079
rfoot -19.7086 -16.9133
rtoes 5.78696
lfemur -4.55271 2.9041 -22.1063
ltibia 21.457
lfoot -13.9973 -6.76759
ltoes -13
604
root 2.72233 17.8699 -2.56206 0.529678 17.1476 1.84087
lowerback 1.433 -0.244452 -3.9033
upperback -1.20611 -0.413767 0.197469
thorax -2.01462 -0.148753 2.40432
lowerneck -23.3154 -1.81147 -10.4921
upperneck 20.5374 0.672682 2.13391
head 10.418 -0.26463 2.58602
rclavicle -3.5921e-014 -7.8023e-015
rhumerus 37.5039 -20.4183 -21.6408
rradius 40.9053
rwrist 5.97452
rhand -25.4843 0.219158
rfingers 7.12502
rthumb 1.04384 -29.758
lclavicle -3.5921e-014 -7.8023e-015
lhumerus 24.4872 20.8669 15.0625
lradius 37.7736
lwrist 17.0464
lhand -9.54169 29.0548
lfingers 7.12502
lthumb 16.4249 58.3795
rfemur -8.75746 -0.14057 8.34622
rtibia 40.0948
rfoot -19.468 -16.6115
rtoes 5.63531
lfemur -4.25101 2.90651 -22.1647
ltibia 21.3408
lfoot -14.1222 -6.57528
ltoes -13.0598
605
root 2.73684 17.8667 -2.52183 0.508524 17.0019 1.84012
lowerback 1.28663 -0.338646 -4.0079
upperback -1.29689 -0.536272 0.238247
thorax -2.01611 -0.206641 2.50794
lowerneck -23.6476 -1.84573 -10.4882
upperneck 20.7494 0.64349 2.23508
head 10.5566 -0.272602 2.62275
rclavicle -1.16196e-014 8.54774e-015
rhumerus 39.2247 -22.7734 -21.5734
rradius 40.7368
rwrist 5.47564
rhand -25.8894 0.182167
rfingers 7.12502
rthumb 0.652528 -29.7966
lclavicle -1.16196e-014 8.54774e-015
lhumerus 25.5602 23.5324 14.3903
lradius 37.4416
lwrist 15.9658
lhand -9.50973 28.9589
lfingers 7.12502
lthumb 16.4557 58.2809
rfemur -8.7965 0.00355846 8.24726
rtibia 40.3685
rfoot -19.147 -16.3689
rtoes 4.56971
lfemur -4.0189 2.87251 -22.1825
ltibia 21.2845
lfoot -14.2481 -6.44139
ltoes -13.1564
606
root 2.74944 17.8651 -2.4813 0.414506 16.8325 1.8116
lowerback 1.24092 -0.405694 -4.09731
upperback -1.3861 -0.626567 0.283697
thorax -2.07454 -0.247377 2.60762
lowerneck -24.1051 -1.93271 -10.4196
upperneck 21.0928 0.563786 2.22862
head 10.7722 -0.316578 2.60463
rclavicle -3.19049e-014 -5.26779e-015
rhumerus 40.9965 -25.1829 -21.7541
rradius 40.5418
rwrist 5.24845
rhand -26.2357 0.262554
rfingers 7.12502
rthumb 0.318078 -29.717
lclavicle -3.19049e-014 -5.26779e-015
lhumerus 26.9754 26.3337 14.1854
lradius 36.9697
lwrist 14.7145
lhand -9.39072 28.8478
lfingers 7.12502
lthumb 16.5703 58.1603
rfemur -8.76916 0.236786 8.17555
rtibia 40.6414
rfoot -18.706 -16.2391
rtoes 3.55138
lfemur -3.7283 2.84076 -22.162
ltibia 21.2458
lfoot -14.415 -6.28998
ltoes -13.1957
607
root 2.75652 17.8621 -2.44259 0.319004 16.6727 1.82707
lowerback 1.29929 -0.456021 -4.24289
upperback -1.55543 -0.703446 0.276033
thorax -2.27499 -0.276319 2.68542
lowerneck -24.2733 -1.97518 -10.1437
upperneck 21.4046 0.481551 2.03533
head 10.926 -0.367231 2.48161
rclavicle -6.1381e-014 -1.64991e-014
rhumerus 42.4154 -27.385 -21.8971
rradius 40.6082
rwrist 4.94267
rhand -26.7112 0.277064
rfingers 7.12502
rthumb -0.141183 -29.7026
lclavicle -6.1381e-014 -1.64991e-014
lhumerus 28.5884 28.9386 14.2158
lradius 36.5734
lwrist 13.9219
lhand -9.51706 28.7065
lfingers 7.12502
lthumb 16.4487 58.0291
rfemur -8.7597 0.453272 8.06569
rtibia 40.9369
rfoot -18.2834 -16.0414
rtoes 3.31571
lfemur -3.43502 2.91608 -22.1568
ltibia 21.1872
lfoot -14.5496 -6.28838
ltoes -13.2639
608
root 2.76332 17.8551 -2.40299 0.231205 16.5131 1.82841
lowerback 1.33631 -0.52232 -4.36399
upperback -1.74352 -0.801093 0.257443
thorax -2.48142 -0.315226 2.73908
lowerneck -24.2794 -1.93399 -9.74701
upperneck 21.6915 0.465034 1.7873
head 11.0366 -0.383574 2.32773
rclavicle -1.45113e-014 5.41688e-015
rhumerus 43.9345 -29.5379 -22.3583
rradius 40.7677
rwrist 4.84167
rhand -27.1186 0.116759
rfingers 7.12502
rthumb -0.534675 -29.8623
lclavicle -1.45113e-014 5.41688e-015
lhumerus 30.2533 31.4194 14.4003
lradius 36.2291
lwrist 13.1262
lhand -10.0873 28.3888
lfingers 7.12502
lthumb 15.8996 57.7561
rfemur -8.76517 0.625884 7.95995
rtibia 41.2716
rfoot -17.9103 -15.8082
rtoes 3.2486
lfemur -3.12199 2.92075 -22.1456
ltibia 21.0878
lfoot -14.646 -6.16632
ltoes -13.1235
